<?xml version="1.0" encoding="utf-8"?>
<!-- Generator: Adobe Illustrator 21.1.0, SVG Export Plug-In . SVG Version: 6.00 Build 0)  -->
<svg version="1.1" id="Camada_1" xmlns="http://www.w3.org/2000/svg" xmlns:xlink="http://www.w3.org/1999/xlink" x="0px" y="0px"
	 viewBox="0 0 5000 792" style="enable-background:new 0 0 5000 792;" xml:space="preserve">
<style type="text/css">
	.st0{clip-path:url(#SVGID_2_);}
	.st1{clip-path:url(#SVGID_4_);fill:#3478C1;}
	.st2{clip-path:url(#SVGID_4_);fill:#FFFFFF;}
	.st3{clip-path:url(#SVGID_4_);fill:#FF7300;}
</style>
<g id="Ingresso.com_-_Logomarca_Horizontal__x28_Cores_x29_">
	<g>
		<defs>
			<rect id="SVGID_1_" y="0.2" width="5000" height="791.6"/>
		</defs>
		<clipPath id="SVGID_2_">
			<use xlink:href="#SVGID_1_"  style="overflow:visible;"/>
		</clipPath>
		<g class="st0">
			<defs>
				<rect id="SVGID_3_" y="0.2" width="5000" height="791.6"/>
			</defs>
			<clipPath id="SVGID_4_">
				<use xlink:href="#SVGID_3_"  style="overflow:visible;"/>
			</clipPath>
			<path class="st1" d="M940.9,188.9c0-29.5,23.8-52.8,52.4-52.8c29.3,0,53.1,23.2,53.1,52.8c0,29.5-23.7,53.5-53.1,53.5
				C964.7,242.4,940.9,218.4,940.9,188.9 M949.3,279h88.7v339.9h-88.7V279z"/>
			<path class="st1" d="M940.9,188.9c0-29.5,23.8-52.8,52.4-52.8c29.3,0,53.1,23.2,53.1,52.8c0,29.5-23.7,53.5-53.1,53.5
				C964.7,242.4,940.9,218.4,940.9,188.9 M949.3,279h88.7v339.9h-88.7V279z"/>
			<path class="st1" d="M1335.6,577.6V413.4c0.4-36.2-2.2-59.4-62.2-59.8c-34.9-0.2-76,21-76.8,45.1v220.3h-88.7V278.9h88.7v29.5
				c21.7-25.3,81.2-40.7,118.1-37.9c74.5,5.5,110.4,42.2,110.4,108.4v239.9h-50C1352.9,618.8,1335.6,599.9,1335.6,577.6"/>
			<path class="st1" d="M1335.6,577.6V413.4c0.4-36.2-2.2-59.4-62.2-59.8c-34.9-0.2-76,21-76.8,45.1v220.3h-88.7V278.9h88.7v29.5
				c21.7-25.3,81.2-40.7,118.1-38c74.5,5.5,110.4,42.2,110.4,108.4v239.9h-50C1352.9,618.8,1335.6,599.9,1335.6,577.6"/>
			<path class="st1" d="M1908.3,618.8V279h88.7v33c24.4-29.5,65.6-41.5,107.5-41.5v87.3c-6.3-1.4-14-2.1-24.4-2.1
				c-29.3,0-68.4,22.9-83.1,44.7v218.5H1908.3z"/>
			<path class="st1" d="M1908.3,618.8V279h88.7v33c24.4-29.5,65.6-41.5,107.6-41.5v87.3c-6.3-1.4-14-2.1-24.4-2.1
				c-29.3,0-68.4,22.8-83.1,44.7v218.5H1908.3z"/>
			<path class="st1" d="M2134.3,448.6c0-98.5,72.6-178,174.6-178c95.3,0,160.9,67.3,168.3,167.2c0,29.5-26.9,40.8-40.2,40.4h-209.8
				c6.3,41.5,39.8,76,97.1,76c28.6,0,67.8-12,89.4-33.1l39.8,59.1c-33.5,31-86.6,47.2-139,47.2
				C2211.8,627.3,2134.3,557.6,2134.3,448.6 M2308.9,343.7c-55.2,0-78.9,38.7-82.4,72.5h166.2
				C2389.9,383.8,2367.6,343.7,2308.9,343.7"/>
			<path class="st1" d="M2134.3,448.6c0-98.5,72.6-178,174.6-178c95.3,0,160.9,67.3,168.3,167.2c0,29.5-26.9,40.8-40.2,40.4h-209.8
				c6.3,41.5,39.8,76,97.1,76c28.6,0,67.8-12,89.4-33.1l39.8,59.1c-33.5,31-86.6,47.2-139,47.2
				C2211.8,627.3,2134.3,557.6,2134.3,448.6 M2308.9,343.7c-55.2,0-78.9,38.7-82.4,72.5h166.2
				C2389.9,383.8,2367.6,343.7,2308.9,343.7"/>
			<path class="st1" d="M2500.5,574.5l38.4-64.7c25.2,23.9,74.7,47.1,116.6,47.1c38.4,0,56.6-14.8,56.6-35.9
				c0-55.6-199.8-9.9-199.8-143.6c0-57,48.9-107,138.3-107c56.6,0,102,19.7,135.5,46.4l-35.6,63.3c-20.3-21.1-58.7-39.4-99.9-39.4
				c-32.1,0-53.1,14.1-53.1,33.1c0,50,200.5,7.7,200.5,145c0,62.6-53.1,108.4-146.7,108.4C2592.7,627.3,2536.1,607.6,2500.5,574.5"
				/>
			<path class="st1" d="M2500.5,574.5l38.4-64.7c25.2,23.9,74.7,47.1,116.6,47.1c38.4,0,56.6-14.8,56.6-35.9
				c0-55.6-199.8-9.9-199.8-143.6c0-57,48.9-107,138.3-107c56.6,0,102,19.7,135.5,46.4l-35.6,63.3c-20.3-21.1-58.7-39.4-99.9-39.4
				c-32.1,0-53.1,14.1-53.1,33.1c0,50,200.5,7.7,200.5,145c0,62.6-53.1,108.4-146.7,108.4C2592.7,627.3,2536.1,607.6,2500.5,574.5"
				/>
			<path class="st1" d="M2826.8,574.5l38.4-64.7c25.1,23.9,74.7,47.1,116.6,47.1c38.4,0,56.6-14.8,56.6-35.9
				c0-55.6-199.7-9.9-199.7-143.6c0-57,48.9-107,138.3-107c56.6,0,102,19.7,135.5,46.4l-35.6,63.3c-20.2-21.1-58.7-39.4-99.9-39.4
				c-32.1,0-53.1,14.1-53.1,33.1c0,50,200.5,7.7,200.5,145c0,62.6-53.1,108.4-146.7,108.4C2919,627.3,2862.4,607.6,2826.8,574.5"/>
			<path class="st1" d="M2826.8,574.5l38.4-64.7c25.1,23.9,74.7,47.1,116.6,47.1c38.4,0,56.6-14.8,56.6-35.9
				c0-55.6-199.7-9.9-199.7-143.6c0-57,48.9-107,138.3-107c56.6,0,102,19.7,135.5,46.4l-35.6,63.3c-20.2-21.1-58.7-39.4-99.9-39.4
				c-32.1,0-53.1,14.1-53.1,33.1c0,50,200.5,7.7,200.5,145c0,62.6-53.1,108.4-146.7,108.4C2919,627.3,2862.4,607.6,2826.8,574.5"/>
			<path class="st1" d="M3573.9,569.6c0-31,25.9-57,56.6-57c30.7,0,56.6,26,56.6,57c0,31-25.8,57-56.6,57
				C3599.8,626.6,3573.9,600.5,3573.9,569.6"/>
			<path class="st1" d="M3573.9,569.6c0-31,25.9-57,56.6-57c30.7,0,56.6,26,56.6,57c0,31-25.8,57-56.6,57
				C3599.8,626.6,3573.9,600.5,3573.9,569.6"/>
			<path class="st1" d="M3743.7,448.5c0-104.2,75.4-178,178.8-178c69.2,0,111.1,30.2,133.4,61.2l-58,54.9
				c-16.1-23.9-40.5-36.6-71.2-36.6c-53.8,0-91.5,39.4-91.5,98.5c0,59.1,37.7,99.2,91.5,99.2c30.7,0,55.2-14.1,71.2-37.3l58,54.9
				c-22.3,31-64.3,61.9-133.4,61.9C3819.1,627.3,3743.7,553.4,3743.7,448.5"/>
			<path class="st1" d="M3743.7,448.5c0-104.2,75.4-178,178.8-178c69.2,0,111.1,30.2,133.4,61.2l-58,54.9
				c-16.1-23.9-40.5-36.6-71.2-36.6c-53.8,0-91.5,39.4-91.5,98.5c0,59.1,37.7,99.2,91.5,99.2c30.7,0,55.2-14.1,71.2-37.3l58,54.9
				c-22.3,31-64.3,61.9-133.4,61.9C3819.1,627.3,3743.7,553.4,3743.7,448.5"/>
			<path class="st1" d="M4910.6,578.1V404.2c0-31.7-14-54.2-50.3-54.2c-31.4,0-60.7,26.2-70.4,47l0.6,221.8h-49.1
				c-17.1,0-40.3-15.3-40.3-40.8V404.2c0-31.7-14-54.2-50.3-54.2c-30.7,0-63.5,26.2-70.4,47l0.6,221.8h-88.7V279h88.7v31.5
				c14.7-19.7,58.7-39.9,110.4-39.9c49.6,0,81.7,11.1,93.6,49.1c19.6-30.2,64.3-49.1,116-49.1c62.2,0,99.2,33.1,99.2,102.7v245.6
				h-48.9C4936.6,618.8,4910.6,604.2,4910.6,578.1"/>
			<path class="st1" d="M4910.6,578.1V404.2c0-31.7-14-54.2-50.3-54.2c-31.4,0-60.7,26.2-70.4,47l0.6,221.8h-49.1
				c-17.1,0-40.3-15.3-40.3-40.8V404.2c0-31.7-14-54.2-50.3-54.2c-30.7,0-63.5,26.2-70.4,47l0.6,221.8h-88.7V279h88.7v31.5
				c14.7-19.7,58.7-39.9,110.4-39.9c49.6,0,81.7,11.1,93.6,49.1c19.6-30.2,64.3-49.1,116-49.1c62.2,0,99.2,33.1,99.2,102.7v245.6
				h-48.9C4936.6,618.8,4910.6,604.2,4910.6,578.1"/>
			<path class="st1" d="M3344.5,268.1c-104,0-182,72.7-182,176.6c0,103.9,78,176.6,182,176.6c104,0,181.5-72.7,181.5-176.6
				C3526,340.8,3448.5,268.1,3344.5,268.1 M3444.3,450.7c-1.5,23.9-11,45.4-26.1,61.9c-1.9,1.8-3.6,3.8-5.5,5.6
				c-17.9,16.7-41.8,27.2-68.2,27.2c-55.4,0-100.4-45.1-100.4-100.7c0-55.6,44.9-100.7,100.4-100.7c53.3,0,96.5,41.9,99.8,94.6
				V450.7z"/>
			<path class="st1" d="M3344.5,268.1c-104,0-182,72.7-182,176.6c0,103.9,78,176.6,182,176.6c104,0,181.5-72.7,181.5-176.6
				C3526,340.8,3448.5,268.1,3344.5,268.1 M3444.3,450.7c-1.5,23.9-11,45.4-26.1,61.9c-1.9,1.8-3.6,3.8-5.5,5.6
				c-17.9,16.7-41.8,27.2-68.2,27.2c-55.4,0-100.4-45.1-100.4-100.7c0-55.6,44.9-100.7,100.4-100.7c53.3,0,96.5,41.9,99.8,94.6
				V450.7z"/>
			<path class="st1" d="M4257,268.1c-104,0-182,72.7-182,176.6c0,103.9,78,176.6,182,176.6c104,0,181.5-72.7,181.5-176.6
				C4438.5,340.8,4361,268.1,4257,268.1 M4356.8,450.7c-1.4,23.9-11,45.4-26.1,61.9c-1.9,1.8-3.6,3.8-5.5,5.6
				c-17.9,16.7-41.8,27.2-68.2,27.2c-55.4,0-100.4-45.1-100.4-100.7c0-55.6,44.9-100.7,100.4-100.7c53.4,0,96.5,41.9,99.7,94.6
				V450.7z"/>
			<path class="st1" d="M4257,268.1c-104,0-182,72.7-182,176.6c0,103.9,78,176.6,182,176.6c104,0,181.5-72.7,181.5-176.6
				C4438.5,340.8,4361,268.1,4257,268.1 M4356.8,450.7c-1.4,23.9-11,45.4-26.1,61.9c-1.9,1.8-3.6,3.8-5.5,5.6
				c-17.9,16.7-41.8,27.2-68.2,27.2c-55.4,0-100.4-45.1-100.4-100.7c0-55.6,44.9-100.7,100.4-100.7c53.4,0,96.5,41.9,99.7,94.6
				V450.7z"/>
			<path class="st1" d="M1729.5,383.2c2.4,2.6,4.5,5.3,6.6,8.1C1734.1,388.4,1731.9,385.8,1729.5,383.2"/>
			<path class="st1" d="M1729.5,383.2c2.4,2.6,4.5,5.3,6.6,8.1C1734.1,388.4,1731.9,385.8,1729.5,383.2"/>
			<path class="st1" d="M1556.4,451c0-55.5,44.7-100.6,99.8-100.6c27.1,0,51.6,11,69.5,28.6c-17.9-17.9-42.3-29.1-69.6-29.1
				c-55.4,0-100.4,45.1-100.4,100.7c0,41.4,24.9,76.8,60.4,92.3C1581,527.5,1556.4,492.2,1556.4,451"/>
			<path class="st1" d="M1556.4,451c0-55.5,44.7-100.6,99.8-100.6c27.1,0,51.6,11,69.5,28.6c-17.9-17.9-42.3-29.1-69.6-29.1
				c-55.4,0-100.4,45.1-100.4,100.7c0,41.4,24.9,76.8,60.4,92.3C1581,527.5,1556.4,492.2,1556.4,451"/>
			<path class="st1" d="M1729.8,518.7c0.4-0.4,0.6-0.9,1-1.4c-0.5,0.6-1,1.3-1.6,1.9C1729.4,519.1,1729.6,518.9,1729.8,518.7"/>
			<path class="st1" d="M1729.8,518.7c0.4-0.4,0.6-0.9,1-1.4c-0.5,0.6-1,1.3-1.6,1.9C1729.4,519.1,1729.6,518.9,1729.8,518.7"/>
			<path class="st1" d="M1741.4,399.1c1,1.6,1.8,3.3,2.7,5C1743.2,402.4,1742.3,400.7,1741.4,399.1"/>
			<path class="st1" d="M1741.4,399.1c1,1.6,1.8,3.3,2.7,5C1743.2,402.4,1742.3,400.7,1741.4,399.1"/>
			<path class="st1" d="M1798.3,279c-5.6,0-49.4,0-49.4,0v17.8c-26.8-14.5-58.3-22.6-92.8-22.6c-104,0-182.1,72.7-182.1,176.6
				c0,103.9,78,176.6,182.1,176.6c34.3,0,65.7-8.1,92.4-22.4c-4.1,61.8-52.5,78.7-93.2,78.7c-41.9,0-78.2-12-105.5-41.5l-49.6,73.7
				c42.6,37.3,100.2,57.5,157.4,57.5c83.1,0,179.9-48.2,179.9-177v-277C1837.6,295,1817.5,279,1798.3,279 M1730.8,517.3
				c-0.4,0.4-0.6,0.9-1,1.4c-0.2,0.2-0.4,0.4-0.5,0.6c-18.2,19.8-44.1,32.4-73,32.4c-14.3,0-27.8-3.1-40.1-8.6
				c-35.5-15.5-60.4-51-60.4-92.3c0-55.6,44.9-100.7,100.4-100.7c27.3,0,51.8,11.2,69.6,29.1c1.3,1.3,2.5,2.8,3.7,4.1
				c2.3,2.6,4.6,5.3,6.6,8.1c1.9,2.5,3.6,5.1,5.2,7.8c1,1.6,1.8,3.3,2.7,5c7.4,14.1,12.1,29.9,12.1,47
				C1756.1,476.6,1746.4,499.6,1730.8,517.3"/>
			<path class="st1" d="M1798.3,279c-5.6,0-49.4,0-49.4,0v17.8c-26.8-14.5-58.3-22.6-92.8-22.6c-104,0-182.1,72.7-182.1,176.6
				c0,103.9,78,176.6,182.1,176.6c34.3,0,65.7-8.1,92.4-22.4c-4.1,61.8-52.5,78.7-93.2,78.7c-41.9,0-78.2-12-105.5-41.5l-49.6,73.7
				c42.6,37.3,100.2,57.5,157.4,57.5c83.1,0,179.9-48.2,179.9-177v-277C1837.6,295,1817.5,279,1798.3,279 M1730.8,517.3
				c-0.4,0.4-0.6,0.9-1,1.4c-0.2,0.2-0.4,0.4-0.5,0.6c-18.2,19.8-44.1,32.4-73,32.4c-14.3,0-27.8-3.1-40.1-8.6
				c-35.5-15.5-60.4-51-60.4-92.3c0-55.6,44.9-100.7,100.4-100.7c27.3,0,51.8,11.2,69.6,29.1c1.3,1.3,2.5,2.8,3.7,4.1
				c2.3,2.6,4.6,5.3,6.6,8.1c1.9,2.5,3.6,5.1,5.2,7.8c1,1.6,1.8,3.3,2.7,5c7.4,14.1,12.1,29.9,12.1,47
				C1756.1,476.6,1746.4,499.6,1730.8,517.3"/>
			<path class="st1" d="M1725.8,379c1.3,1.3,2.5,2.7,3.7,4.1C1728.3,381.8,1727.1,380.3,1725.8,379"/>
			<path class="st1" d="M1725.8,379c1.3,1.3,2.5,2.7,3.7,4.1C1728.3,381.8,1727.1,380.3,1725.8,379"/>
			<path class="st1" d="M1656.1,551.4c-14.2,0-27.7-3-39.9-8.4c12.3,5.5,25.8,8.6,40.1,8.6c28.9,0,54.7-12.6,73-32.4
				c-1.7,1.7-3.3,3.4-4.9,5C1706.4,541,1682.5,551.4,1656.1,551.4"/>
			<path class="st1" d="M1656.1,551.4c-14.2,0-27.7-3-39.9-8.4c12.3,5.5,25.8,8.6,40.1,8.6c28.9,0,54.7-12.6,73-32.4
				c-1.7,1.7-3.3,3.4-4.9,5C1706.4,541,1682.5,551.4,1656.1,551.4"/>
			<path class="st1" d="M1736.1,391.2c1.8,2.5,3.6,5.1,5.2,7.8C1739.7,396.4,1738,393.8,1736.1,391.2"/>
			<path class="st1" d="M1736.1,391.2c1.8,2.5,3.6,5.1,5.2,7.8C1739.7,396.4,1738,393.8,1736.1,391.2"/>
			<path class="st2" d="M460.7,307.4L460.7,307.4L460.7,307.4z"/>
			<path class="st3" d="M681.2,222.4L621.9,0.2L0,167.6l59.4,222.2l0,0.1c37.2,7.6,68.8,35.6,79.3,74.9c10.5,39.3-3,79.4-31.4,104.7
				l0,0.1l59.4,222.3l621.9-167.3l-59.3-222.1c-37.4-7.5-69.2-35.5-79.7-75C639,287.9,652.6,247.6,681.2,222.4"/>
			<path class="st2" d="M460.7,307.4L460.7,307.4L460.7,307.4z"/>
			<path class="st2" d="M474.6,193.5c0,45.6-36.3,82.6-81,82.6c-44.7,0-80.9-37-80.9-82.6c0-45.6,36.3-82.6,81-82.6
				C438.4,110.8,474.6,147.8,474.6,193.5"/>
			<path class="st2" d="M468,310.9l-148.7-0.1l0.1,312.6c0,24.3,15.7,41.4,37.9,42.1l110.5,0.1L468,310.9z"/>
		</g>
	</g>
</g>
</svg>
